<svg width="700" height="700" viewBox="0 0 700 700" fill="none" xmlns="http://www.w3.org/2000/svg">
<path d="M128.333 612.5L87.5 571.667L306.979 351.458L175 318.646L319.375 228.958L306.979 58.3333L437.5 168.438L595 104.271L531.562 262.5L641.667 392.292L471.042 380.625L380.625 525L347.812 393.021L128.333 612.5ZM145.833 233.333L87.5 175L145.833 116.667L204.167 175L145.833 233.333ZM404.688 376.979L439.688 319.375L507.5 324.479L463.75 272.708L489.271 210L426.562 235.521L374.792 192.5L379.896 259.583L322.292 295.312L387.917 311.354L404.688 376.979ZM525 612.5L466.667 554.167L525 495.833L583.333 554.167L525 612.5Z" fill="url(#paint0_linear_109_10)"/>
<defs>
<linearGradient id="paint0_linear_109_10" x1="364.583" y1="58.3333" x2="364.583" y2="612.5" gradientUnits="userSpaceOnUse">
<stop stop-color="#B99EFC"/>
<stop offset="1" stop-color="#511463"/>
</linearGradient>
</defs>
</svg>
