<svg width="1203" height="383" viewBox="0 0 1203 383" fill="none" xmlns="http://www.w3.org/2000/svg">
<path d="M58 213.4C47.8667 213.4 38.8 211.667 30.8 208.2C22.9333 204.733 16.7333 199.667 12.2 193C7.66667 186.333 5.26667 178.267 5 168.8H33.6C33.7333 172.933 34.7333 176.667 36.6 180C38.6 183.333 41.4 186 45 188C48.6 189.867 52.9333 190.8 58 190.8C62.1333 190.8 65.8 190.2 69 189C72.2 187.667 74.6667 185.8 76.4 183.4C78.2667 180.867 79.2 177.733 79.2 174C79.2 170 78.2 166.667 76.2 164C74.3333 161.333 71.6667 159.067 68.2 157.2C64.7333 155.2 60.8 153.467 56.4 152C52.1333 150.4 47.6667 148.8 43 147.2C31.6667 143.333 23 138.333 17 132.2C11.1333 126.067 8.2 118 8.2 108C8.2 99.8667 10.2 92.8667 14.2 87C18.2 81.1333 23.8 76.6 31 73.4C38.2 70.2 46.4 68.6 55.6 68.6C65.0667 68.6 73.4 70.2667 80.6 73.6C87.8 76.8 93.4667 81.4667 97.6 87.6C101.733 93.7333 103.933 100.933 104.2 109.2H75.2C75.0667 105.6 74.1333 102.467 72.4 99.8C70.8 97.1333 68.4667 95 65.4 93.4C62.4667 91.8 59 91 55 91C51.5333 90.8667 48.3333 91.4 45.4 92.6C42.6 93.6667 40.4 95.3333 38.8 97.6C37.2 99.7333 36.4 102.6 36.4 106.2C36.4 109.533 37.1333 112.333 38.6 114.6C40.2 116.867 42.4 118.867 45.2 120.6C48.1333 122.2 51.5333 123.8 55.4 125.4C59.4 126.867 63.8667 128.467 68.8 130.2C75.8667 132.6 82.3333 135.467 88.2 138.8C94.0667 142 98.7333 146.2 102.2 151.4C105.8 156.6 107.6 163.333 107.6 171.6C107.6 179.067 105.667 186 101.8 192.4C98.0667 198.667 92.5333 203.733 85.2 207.6C77.8667 211.467 68.8 213.4 58 213.4ZM165.895 211C158.829 211 152.629 209.933 147.295 207.8C142.095 205.533 138.029 201.867 135.095 196.8C132.162 191.6 130.695 184.533 130.695 175.6V133.4H113.695V111.8H130.695L133.695 84.8H157.695V111.8H184.095V133.4H157.695V176C157.695 180.8 158.695 184.133 160.695 186C162.695 187.733 166.095 188.6 170.895 188.6H183.495V211H165.895ZM239.417 213.4C229.284 213.4 220.284 211.267 212.417 207C204.684 202.733 198.617 196.733 194.217 189C189.817 181.267 187.617 172.4 187.617 162.4C187.617 152 189.751 142.867 194.017 135C198.417 127 204.484 120.733 212.217 116.2C220.084 111.667 229.151 109.4 239.417 109.4C249.417 109.4 258.151 111.533 265.617 115.8C273.084 120.067 278.951 125.933 283.217 133.4C287.484 140.733 289.617 149.067 289.617 158.4C289.617 159.733 289.551 161.267 289.417 163C289.417 164.6 289.351 166.267 289.217 168H206.817V151.4H262.217C261.817 145.133 259.484 140.133 255.217 136.4C251.084 132.667 245.884 130.8 239.617 130.8C234.951 130.8 230.684 131.867 226.817 134C222.951 136 219.884 139.133 217.617 143.4C215.351 147.533 214.217 152.8 214.217 159.2V165C214.217 170.467 215.284 175.2 217.417 179.2C219.551 183.067 222.484 186.067 226.217 188.2C230.084 190.333 234.417 191.4 239.217 191.4C244.151 191.4 248.284 190.333 251.617 188.2C254.951 185.933 257.484 183.067 259.217 179.6H286.617C284.751 185.867 281.617 191.6 277.217 196.8C272.817 201.867 267.417 205.933 261.017 209C254.617 211.933 247.417 213.4 239.417 213.4ZM302.555 211V71H329.555V211H302.555ZM395.277 213.4C385.143 213.4 376.143 211.267 368.277 207C360.543 202.733 354.477 196.733 350.077 189C345.677 181.267 343.477 172.4 343.477 162.4C343.477 152 345.61 142.867 349.877 135C354.277 127 360.343 120.733 368.077 116.2C375.943 111.667 385.01 109.4 395.277 109.4C405.277 109.4 414.01 111.533 421.477 115.8C428.943 120.067 434.81 125.933 439.077 133.4C443.343 140.733 445.477 149.067 445.477 158.4C445.477 159.733 445.41 161.267 445.277 163C445.277 164.6 445.21 166.267 445.077 168H362.677V151.4H418.077C417.677 145.133 415.343 140.133 411.077 136.4C406.943 132.667 401.743 130.8 395.477 130.8C390.81 130.8 386.543 131.867 382.677 134C378.81 136 375.743 139.133 373.477 143.4C371.21 147.533 370.077 152.8 370.077 159.2V165C370.077 170.467 371.143 175.2 373.277 179.2C375.41 183.067 378.343 186.067 382.077 188.2C385.943 190.333 390.277 191.4 395.077 191.4C400.01 191.4 404.143 190.333 407.477 188.2C410.81 185.933 413.343 183.067 415.077 179.6H442.477C440.61 185.867 437.477 191.6 433.077 196.8C428.677 201.867 423.277 205.933 416.877 209C410.477 211.933 403.277 213.4 395.277 213.4ZM499.014 213.4C490.214 213.4 482.414 211.933 475.614 209C468.947 206.067 463.547 202.067 459.414 197C455.414 191.8 453.081 185.933 452.414 179.4H479.414C479.947 181.8 481.014 184.067 482.614 186.2C484.214 188.333 486.347 190.067 489.014 191.4C491.814 192.6 495.014 193.2 498.614 193.2C502.347 193.2 505.347 192.733 507.614 191.8C509.881 190.733 511.547 189.4 512.614 187.8C513.814 186.2 514.414 184.467 514.414 182.6C514.414 180.067 513.547 178.133 511.814 176.8C510.214 175.333 507.814 174.067 504.614 173C501.547 171.933 497.881 170.8 493.614 169.6C489.214 168.4 484.747 167.133 480.214 165.8C475.814 164.467 471.747 162.8 468.014 160.8C464.281 158.667 461.281 156 459.014 152.8C456.881 149.467 455.814 145.333 455.814 140.4C455.814 134.667 457.414 129.467 460.614 124.8C463.814 120.133 468.414 116.4 474.414 113.6C480.547 110.8 487.814 109.4 496.214 109.4C508.214 109.4 517.747 112.133 524.814 117.6C532.014 123.067 536.214 130.6 537.414 140.2H512.014C511.347 136.867 509.614 134.267 506.814 132.4C504.147 130.533 500.614 129.6 496.214 129.6C491.547 129.6 487.947 130.533 485.414 132.4C483.014 134.133 481.814 136.267 481.814 138.8C481.814 140.667 482.614 142.267 484.214 143.6C485.814 144.8 488.147 145.933 491.214 147C494.414 147.933 498.214 149 502.614 150.2C509.681 152.067 516.147 154.067 522.014 156.2C527.881 158.333 532.547 161.267 536.014 165C539.481 168.6 541.214 173.733 541.214 180.4C541.347 186.8 539.681 192.467 536.214 197.4C532.747 202.333 527.881 206.267 521.614 209.2C515.347 212 507.814 213.4 499.014 213.4ZM595.192 211C588.126 211 581.926 209.933 576.592 207.8C571.392 205.533 567.326 201.867 564.392 196.8C561.459 191.6 559.992 184.533 559.992 175.6V133.4H542.992V111.8H559.992L562.992 84.8H586.992V111.8H613.392V133.4H586.992V176C586.992 180.8 587.992 184.133 589.992 186C591.992 187.733 595.392 188.6 600.192 188.6H612.792V211H595.192ZM625.653 211V111.8H652.653V211H625.653ZM639.253 99.2C634.32 99.2 630.253 97.8 627.053 95C623.986 92.0667 622.453 88.4 622.453 84C622.453 79.6 623.986 75.9333 627.053 73C630.253 70.0667 634.32 68.6 639.253 68.6C644.186 68.6 648.186 70.0667 651.253 73C654.32 75.9333 655.853 79.6 655.853 84C655.853 88.2667 654.32 91.8667 651.253 94.8C648.186 97.7333 644.186 99.2 639.253 99.2ZM704.267 213.4C696.401 213.4 689.867 212.067 684.667 209.4C679.601 206.733 675.867 203.133 673.467 198.6C671.067 194.067 669.867 189.067 669.867 183.6C669.867 177.467 671.401 172.067 674.467 167.4C677.667 162.733 682.467 159.133 688.867 156.6C695.267 153.933 703.334 152.6 713.067 152.6H738.067C738.067 147.667 737.334 143.6 735.867 140.4C734.534 137.2 732.401 134.8 729.467 133.2C726.667 131.6 723.067 130.8 718.667 130.8C713.467 130.8 709.001 132 705.267 134.4C701.667 136.667 699.401 140.267 698.467 145.2H672.267C673.067 137.867 675.467 131.533 679.467 126.2C683.601 120.867 689.001 116.733 695.667 113.8C702.467 110.867 710.134 109.4 718.667 109.4C728.267 109.4 736.534 111 743.467 114.2C750.401 117.267 755.734 121.867 759.467 128C763.201 134 765.067 141.333 765.067 150V211H742.667L739.867 195.6H739.067C736.934 198.533 734.601 201.133 732.067 203.4C729.667 205.667 727.001 207.533 724.067 209C721.134 210.467 718.001 211.533 714.667 212.2C711.334 213 707.867 213.4 704.267 213.4ZM713.067 192.6C716.801 192.6 720.001 192 722.667 190.8C725.467 189.467 727.867 187.733 729.867 185.6C731.867 183.467 733.401 181 734.467 178.2C735.667 175.267 736.467 172.267 736.867 169.2H716.067C711.934 169.2 708.534 169.733 705.867 170.8C703.334 171.733 701.467 173.133 700.267 175C699.067 176.733 698.467 178.8 698.467 181.2C698.467 183.6 699.067 185.667 700.267 187.4C701.467 189.133 703.201 190.467 705.467 191.4C707.734 192.2 710.267 192.6 713.067 192.6ZM781.07 211V71H808.07V211H781.07Z" fill="white"/>
<path d="M26.01 296.08C21.15 296.08 17.07 295.21 13.77 293.47C10.53 291.73 8.07 289.36 6.39 286.36C4.77 283.3 3.99 279.88 4.05 276.1H8.28C8.28 279.04 8.88 281.77 10.08 284.29C11.34 286.75 13.26 288.73 15.84 290.23C18.48 291.73 21.84 292.48 25.92 292.48C29.64 292.48 32.67 291.88 35.01 290.68C37.41 289.48 39.21 287.86 40.41 285.82C41.61 283.78 42.21 281.5 42.21 278.98C42.21 275.92 41.52 273.49 40.14 271.69C38.82 269.83 37.05 268.33 34.83 267.19C32.67 266.05 30.24 265.09 27.54 264.31C24.9 263.47 22.29 262.57 19.71 261.61C15.51 260.11 12.3 258.22 10.08 255.94C7.86 253.6 6.75 250.51 6.75 246.67C6.75 243.73 7.44 241.09 8.82 238.75C10.26 236.35 12.36 234.46 15.12 233.08C17.88 231.64 21.24 230.92 25.2 230.92C28.86 230.92 32.1 231.58 34.92 232.9C37.74 234.22 39.96 236.14 41.58 238.66C43.2 241.12 44.01 244.18 44.01 247.84H39.69C39.69 245.02 39.09 242.62 37.89 240.64C36.75 238.66 35.07 237.16 32.85 236.14C30.69 235.06 28.11 234.52 25.11 234.52C21.93 234.52 19.29 235.06 17.19 236.14C15.09 237.16 13.53 238.57 12.51 240.37C11.49 242.11 10.98 244.12 10.98 246.4C10.98 248.98 11.61 251.05 12.87 252.61C14.13 254.17 15.81 255.46 17.91 256.48C20.07 257.44 22.47 258.34 25.11 259.18C27.75 260.02 30.45 260.98 33.21 262.06C35.73 263.08 37.98 264.28 39.96 265.66C42 267.04 43.59 268.78 44.73 270.88C45.93 272.98 46.53 275.62 46.53 278.8C46.53 281.92 45.78 284.8 44.28 287.44C42.78 290.02 40.5 292.12 37.44 293.74C34.44 295.3 30.63 296.08 26.01 296.08ZM76.5471 296.08C72.4071 296.08 68.6871 295.12 65.3871 293.2C62.1471 291.28 59.5671 288.55 57.6471 285.01C55.7871 281.41 54.8571 277.21 54.8571 272.41C54.8571 267.43 55.8171 263.17 57.7371 259.63C59.6571 256.09 62.2671 253.36 65.5671 251.44C68.8671 249.52 72.5871 248.56 76.7271 248.56C80.9271 248.56 84.6471 249.52 87.8871 251.44C91.1871 253.36 93.7671 256.09 95.6271 259.63C97.5471 263.17 98.5071 267.43 98.5071 272.41C98.5071 277.21 97.5471 281.41 95.6271 285.01C93.7071 288.55 91.0971 291.28 87.7971 293.2C84.4971 295.12 80.7471 296.08 76.5471 296.08ZM76.5471 292.48C79.6671 292.48 82.5471 291.73 85.1871 290.23C87.8871 288.73 90.0771 286.48 91.7571 283.48C93.4371 280.48 94.2771 276.76 94.2771 272.32C94.2771 267.88 93.4371 264.16 91.7571 261.16C90.1371 258.16 87.9771 255.94 85.2771 254.5C82.6371 253 79.7871 252.25 76.7271 252.25C73.6671 252.25 70.7871 253 68.0871 254.5C65.3871 256 63.1971 258.25 61.5171 261.25C59.8971 264.19 59.0871 267.88 59.0871 272.32C59.0871 276.76 59.8971 280.48 61.5171 283.48C63.1971 286.48 65.3571 288.73 67.9971 290.23C70.6371 291.73 73.4871 292.48 76.5471 292.48ZM112.192 295V240.37C112.192 238.15 112.522 236.29 113.182 234.79C113.902 233.29 115.012 232.15 116.512 231.37C118.072 230.59 120.082 230.2 122.542 230.2H127.402V233.71H122.992C120.532 233.71 118.792 234.22 117.772 235.24C116.752 236.26 116.242 238.03 116.242 240.55V295H112.192ZM104.812 253.15V249.64H128.752V253.15H104.812ZM153.714 295C151.314 295 149.274 294.64 147.594 293.92C145.974 293.2 144.714 291.97 143.814 290.23C142.974 288.43 142.554 286.03 142.554 283.03V253.15H134.634V249.64H142.554L143.184 239.74H146.604V249.64H160.824V253.15H146.604V282.94C146.604 286.12 147.234 288.34 148.494 289.6C149.754 290.86 151.884 291.49 154.884 291.49H159.924V295H153.714ZM179.392 295L166.522 249.64H170.752L181.912 290.5H181.282L193.792 249.64H198.472L210.802 290.41H210.172L221.512 249.64H225.742L212.602 295H208.282L195.862 253.33H196.492L183.622 295H179.392ZM247.179 296.08C243.759 296.08 240.879 295.42 238.539 294.1C236.199 292.78 234.429 291.07 233.229 288.97C232.029 286.81 231.429 284.5 231.429 282.04C231.429 278.74 232.179 276.04 233.679 273.94C235.179 271.84 237.279 270.28 239.979 269.26C242.739 268.18 245.919 267.64 249.519 267.64H263.199C263.199 264.4 262.719 261.64 261.759 259.36C260.859 257.08 259.449 255.31 257.529 254.05C255.609 252.79 253.089 252.16 249.969 252.16C246.309 252.16 243.279 253.03 240.879 254.77C238.539 256.51 237.039 259.15 236.379 262.69H232.239C232.659 259.51 233.709 256.9 235.389 254.86C237.129 252.76 239.259 251.2 241.779 250.18C244.299 249.1 247.029 248.56 249.969 248.56C254.109 248.56 257.439 249.4 259.959 251.08C262.479 252.7 264.309 254.92 265.449 257.74C266.649 260.5 267.249 263.65 267.249 267.19V295H263.649L263.199 285.91C262.719 286.87 262.059 287.95 261.219 289.15C260.379 290.35 259.329 291.46 258.069 292.48C256.809 293.5 255.279 294.34 253.479 295C251.739 295.72 249.639 296.08 247.179 296.08ZM247.629 292.39C250.209 292.39 252.459 291.91 254.379 290.95C256.299 289.93 257.919 288.61 259.239 286.99C260.559 285.31 261.549 283.51 262.209 281.59C262.869 279.67 263.199 277.78 263.199 275.92V271.15H249.789C246.249 271.15 243.459 271.63 241.419 272.59C239.379 273.49 237.909 274.75 237.009 276.37C236.169 277.99 235.749 279.85 235.749 281.95C235.749 283.87 236.199 285.64 237.099 287.26C237.999 288.82 239.349 290.08 241.149 291.04C242.949 291.94 245.109 292.39 247.629 292.39ZM279.027 295V249.64H282.627L283.077 258.82C284.097 256.42 285.417 254.47 287.037 252.97C288.717 251.47 290.697 250.36 292.977 249.64C295.257 248.92 297.837 248.56 300.717 248.56V252.7H299.097C297.297 252.7 295.437 252.94 293.517 253.42C291.657 253.9 289.917 254.77 288.297 256.03C286.737 257.23 285.477 258.97 284.517 261.25C283.557 263.53 283.077 266.44 283.077 269.98V295H279.027ZM325.606 296.08C321.346 296.08 317.656 295.09 314.536 293.11C311.476 291.13 309.106 288.34 307.426 284.74C305.746 281.14 304.906 276.91 304.906 272.05C304.906 267.13 305.776 262.93 307.516 259.45C309.316 255.97 311.776 253.3 314.896 251.44C318.076 249.52 321.706 248.56 325.786 248.56C330.166 248.56 333.826 249.55 336.766 251.53C339.706 253.45 341.926 256 343.426 259.18C344.926 262.36 345.676 265.84 345.676 269.62C345.676 270.22 345.676 270.79 345.676 271.33C345.676 271.87 345.646 272.5 345.586 273.22H307.786V269.71H341.716C341.656 263.89 340.126 259.51 337.126 256.57C334.126 253.63 330.286 252.16 325.606 252.16C322.726 252.16 320.026 252.82 317.506 254.14C314.986 255.46 312.916 257.5 311.296 260.26C309.736 263.02 308.956 266.53 308.956 270.79V272.41C308.956 276.97 309.736 280.75 311.296 283.75C312.856 286.69 314.896 288.88 317.416 290.32C319.936 291.76 322.666 292.48 325.606 292.48C329.386 292.48 332.506 291.61 334.966 289.87C337.426 288.07 339.226 285.55 340.366 282.31H344.416C343.636 284.95 342.406 287.32 340.726 289.42C339.106 291.52 337.036 293.17 334.516 294.37C331.996 295.51 329.026 296.08 325.606 296.08ZM398.051 296.08C393.191 296.08 389.111 295.21 385.811 293.47C382.571 291.73 380.111 289.36 378.431 286.36C376.811 283.3 376.031 279.88 376.091 276.1H380.321C380.321 279.04 380.921 281.77 382.121 284.29C383.381 286.75 385.301 288.73 387.881 290.23C390.521 291.73 393.881 292.48 397.961 292.48C401.681 292.48 404.711 291.88 407.051 290.68C409.451 289.48 411.251 287.86 412.451 285.82C413.651 283.78 414.251 281.5 414.251 278.98C414.251 275.92 413.561 273.49 412.181 271.69C410.861 269.83 409.091 268.33 406.871 267.19C404.711 266.05 402.281 265.09 399.581 264.31C396.941 263.47 394.331 262.57 391.751 261.61C387.551 260.11 384.341 258.22 382.121 255.94C379.901 253.6 378.791 250.51 378.791 246.67C378.791 243.73 379.481 241.09 380.861 238.75C382.301 236.35 384.401 234.46 387.161 233.08C389.921 231.64 393.281 230.92 397.241 230.92C400.901 230.92 404.141 231.58 406.961 232.9C409.781 234.22 412.001 236.14 413.621 238.66C415.241 241.12 416.051 244.18 416.051 247.84H411.731C411.731 245.02 411.131 242.62 409.931 240.64C408.791 238.66 407.111 237.16 404.891 236.14C402.731 235.06 400.151 234.52 397.151 234.52C393.971 234.52 391.331 235.06 389.231 236.14C387.131 237.16 385.571 238.57 384.551 240.37C383.531 242.11 383.021 244.12 383.021 246.4C383.021 248.98 383.651 251.05 384.911 252.61C386.171 254.17 387.851 255.46 389.951 256.48C392.111 257.44 394.511 258.34 397.151 259.18C399.791 260.02 402.491 260.98 405.251 262.06C407.771 263.08 410.021 264.28 412.001 265.66C414.041 267.04 415.631 268.78 416.771 270.88C417.971 272.98 418.571 275.62 418.571 278.8C418.571 281.92 417.821 284.8 416.321 287.44C414.821 290.02 412.541 292.12 409.481 293.74C406.481 295.3 402.671 296.08 398.051 296.08ZM448.588 296.08C444.448 296.08 440.728 295.12 437.428 293.2C434.188 291.28 431.608 288.55 429.688 285.01C427.828 281.41 426.898 277.21 426.898 272.41C426.898 267.43 427.858 263.17 429.778 259.63C431.698 256.09 434.308 253.36 437.608 251.44C440.908 249.52 444.628 248.56 448.768 248.56C452.968 248.56 456.688 249.52 459.928 251.44C463.228 253.36 465.808 256.09 467.668 259.63C469.588 263.17 470.548 267.43 470.548 272.41C470.548 277.21 469.588 281.41 467.668 285.01C465.748 288.55 463.138 291.28 459.838 293.2C456.538 295.12 452.788 296.08 448.588 296.08ZM448.588 292.48C451.708 292.48 454.588 291.73 457.228 290.23C459.928 288.73 462.118 286.48 463.798 283.48C465.478 280.48 466.318 276.76 466.318 272.32C466.318 267.88 465.478 264.16 463.798 261.16C462.178 258.16 460.018 255.94 457.318 254.5C454.678 253 451.828 252.25 448.768 252.25C445.708 252.25 442.828 253 440.128 254.5C437.428 256 435.238 258.25 433.558 261.25C431.938 264.19 431.128 267.88 431.128 272.32C431.128 276.76 431.938 280.48 433.558 283.48C435.238 286.48 437.398 288.73 440.038 290.23C442.678 291.73 445.528 292.48 448.588 292.48ZM481.263 295V230.2H485.313V295H481.263ZM513.802 296.08C510.562 296.08 507.652 295.45 505.072 294.19C502.552 292.87 500.572 290.86 499.132 288.16C497.692 285.4 496.972 281.83 496.972 277.45V249.64H501.022V276.91C501.022 282.19 502.162 286.09 504.442 288.61C506.782 291.13 510.142 292.39 514.522 292.39C517.462 292.39 520.042 291.7 522.262 290.32C524.542 288.94 526.312 286.9 527.572 284.2C528.892 281.44 529.552 278.08 529.552 274.12V249.64H533.602V295H530.092L529.552 285.82C528.052 289.3 525.892 291.88 523.072 293.56C520.252 295.24 517.162 296.08 513.802 296.08ZM562.23 295C559.83 295 557.79 294.64 556.11 293.92C554.49 293.2 553.23 291.97 552.33 290.23C551.49 288.43 551.07 286.03 551.07 283.03V253.15H543.15V249.64H551.07L551.7 239.74H555.12V249.64H569.34V253.15H555.12V282.94C555.12 286.12 555.75 288.34 557.01 289.6C558.27 290.86 560.4 291.49 563.4 291.49H568.44V295H562.23ZM579.537 295V249.64H583.587V295H579.537ZM581.607 237.67C580.767 237.67 580.017 237.37 579.357 236.77C578.757 236.11 578.457 235.33 578.457 234.43C578.457 233.53 578.757 232.81 579.357 232.27C580.017 231.67 580.767 231.37 581.607 231.37C582.447 231.37 583.167 231.67 583.767 232.27C584.427 232.81 584.757 233.53 584.757 234.43C584.757 235.33 584.427 236.11 583.767 236.77C583.167 237.37 582.447 237.67 581.607 237.67ZM616.547 296.08C612.407 296.08 608.687 295.12 605.387 293.2C602.147 291.28 599.567 288.55 597.647 285.01C595.787 281.41 594.857 277.21 594.857 272.41C594.857 267.43 595.817 263.17 597.737 259.63C599.657 256.09 602.267 253.36 605.567 251.44C608.867 249.52 612.587 248.56 616.727 248.56C620.927 248.56 624.647 249.52 627.887 251.44C631.187 253.36 633.767 256.09 635.627 259.63C637.547 263.17 638.507 267.43 638.507 272.41C638.507 277.21 637.547 281.41 635.627 285.01C633.707 288.55 631.097 291.28 627.797 293.2C624.497 295.12 620.747 296.08 616.547 296.08ZM616.547 292.48C619.667 292.48 622.547 291.73 625.187 290.23C627.887 288.73 630.077 286.48 631.757 283.48C633.437 280.48 634.277 276.76 634.277 272.32C634.277 267.88 633.437 264.16 631.757 261.16C630.137 258.16 627.977 255.94 625.277 254.5C622.637 253 619.787 252.25 616.727 252.25C613.667 252.25 610.787 253 608.087 254.5C605.387 256 603.197 258.25 601.517 261.25C599.897 264.19 599.087 267.88 599.087 272.32C599.087 276.76 599.897 280.48 601.517 283.48C603.197 286.48 605.357 288.73 607.997 290.23C610.637 291.73 613.487 292.48 616.547 292.48ZM649.222 295V249.64H652.822L653.182 258.82C654.742 255.4 656.902 252.85 659.662 251.17C662.482 249.43 665.602 248.56 669.022 248.56C672.322 248.56 675.232 249.22 677.752 250.54C680.272 251.86 682.252 253.9 683.692 256.66C685.132 259.36 685.852 262.87 685.852 267.19V295H681.802V267.82C681.802 262.48 680.662 258.55 678.382 256.03C676.102 253.51 672.802 252.25 668.482 252.25C665.602 252.25 662.992 252.97 660.652 254.41C658.372 255.79 656.572 257.83 655.252 260.53C653.932 263.23 653.272 266.56 653.272 270.52V295H649.222ZM713.4 296.08C710.1 296.08 707.13 295.54 704.49 294.46C701.85 293.32 699.72 291.64 698.1 289.42C696.54 287.2 695.55 284.44 695.13 281.14H699.45C699.69 283.54 700.44 285.58 701.7 287.26C703.02 288.94 704.7 290.23 706.74 291.13C708.78 291.97 711.03 292.39 713.49 292.39C715.95 292.39 718.02 292 719.7 291.22C721.44 290.44 722.76 289.36 723.66 287.98C724.62 286.54 725.1 284.95 725.1 283.21C725.1 280.99 724.62 279.28 723.66 278.08C722.76 276.82 721.38 275.86 719.52 275.2C717.66 274.54 715.32 273.94 712.5 273.4C710.22 272.98 708.15 272.44 706.29 271.78C704.49 271.12 702.93 270.31 701.61 269.35C700.29 268.39 699.27 267.22 698.55 265.84C697.89 264.4 697.56 262.78 697.56 260.98C697.56 258.52 698.16 256.36 699.36 254.5C700.62 252.64 702.36 251.2 704.58 250.18C706.8 249.1 709.44 248.56 712.5 248.56C716.82 248.56 720.39 249.7 723.21 251.98C726.09 254.26 727.74 257.62 728.16 262.06H724.02C723.84 259.12 722.73 256.75 720.69 254.95C718.71 253.15 715.95 252.25 712.41 252.25C708.99 252.25 706.35 253.03 704.49 254.59C702.69 256.09 701.79 258.1 701.79 260.62C701.79 262.06 702.15 263.35 702.87 264.49C703.65 265.63 704.88 266.65 706.56 267.55C708.24 268.39 710.49 269.11 713.31 269.71C716.25 270.25 718.92 270.94 721.32 271.78C723.78 272.62 725.73 273.88 727.17 275.56C728.61 277.24 729.33 279.64 729.33 282.76C729.33 285.34 728.67 287.65 727.35 289.69C726.09 291.67 724.26 293.23 721.86 294.37C719.52 295.51 716.7 296.08 713.4 296.08Z" fill="white"/>
<path d="M890.217 335.125L867.875 312.783L987.961 192.298L915.75 174.345L994.744 125.273L987.961 31.9167L1059.38 92.1594L1145.55 57.051L1110.84 143.625L1171.08 214.64L1077.73 208.256L1028.26 287.25L1010.3 215.039L890.217 335.125ZM899.792 127.667L867.875 95.75L899.792 63.8333L931.708 95.75L899.792 127.667ZM1041.42 206.261L1060.57 174.744L1097.68 177.536L1073.74 149.21L1087.7 114.9L1053.39 128.864L1025.06 105.325L1027.86 142.029L996.34 161.578L1032.25 170.355L1041.42 206.261ZM1107.25 335.125L1075.33 303.208L1107.25 271.292L1139.17 303.208L1107.25 335.125Z" fill="#E3E3E3"/>
</svg>
